HIERARCHY
ROOT Hips
{
	OFFSET -0.001795 -0.223333 0.028219
	CHANNELS 6 Xposition Yposition Zposition Zrotation Yrotation Xrotation 
	JOINT LeftUpLeg
	{
		OFFSET 0.069520 -0.091406 -0.006815
		CHANNELS 3 Zrotation Yrotation Xrotation
		JOINT LeftLeg
		{
			OFFSET 0.034277 -0.375199 -0.004496
			CHANNELS 3 Zrotation Yrotation Xrotation
			JOINT LeftFoot
			{
				OFFSET -0.013596 -0.397961 -0.043693
				CHANNELS 3 Zrotation Yrotation Xrotation
				JOINT LeftToe
				{
					OFFSET 0.026358 -0.055791 0.119288
					CHANNELS 3 Zrotation Yrotation Xrotation
					End Site
					{
						OFFSET 0.000000 0.000000 0.000000
					}
				}
			}
		}
	}
	JOINT RightUpLeg
	{
		OFFSET -0.067670 -0.090522 -0.004320
		CHANNELS 3 Zrotation Yrotation Xrotation
		JOINT RightLeg
		{
			OFFSET -0.038290 -0.382569 -0.008850
			CHANNELS 3 Zrotation Yrotation Xrotation
			JOINT RightFoot
			{
				OFFSET 0.015774 -0.398415 -0.042312
				CHANNELS 3 Zrotation Yrotation Xrotation
				JOINT RightToe
				{
					OFFSET -0.025372 -0.048144 0.123348
					CHANNELS 3 Zrotation Yrotation Xrotation
					End Site
					{
						OFFSET 0.000000 0.000000 0.000000
					}
				}
			}
		}
	}
	JOINT Spine
	{
		OFFSET -0.002533 0.108963 -0.026696
		CHANNELS 3 Zrotation Yrotation Xrotation
		JOINT Spine1
		{
			OFFSET 0.005487 0.135180 0.001092
			CHANNELS 3 Zrotation Yrotation Xrotation
			JOINT Spine2
			{
				OFFSET 0.001457 0.052922 0.025425
				CHANNELS 3 Zrotation Yrotation Xrotation
				JOINT Neck
				{
					OFFSET -0.002778 0.213870 -0.042857
					CHANNELS 3 Zrotation Yrotation Xrotation
					JOINT Head
					{
						OFFSET 0.005152 0.064970 0.051349
						CHANNELS 3 Zrotation Yrotation Xrotation
						End Site
						{
							OFFSET 0.000000 0.000000 0.000000
						}
					}
				}
				JOINT LeftShoulder
				{
					OFFSET 0.078845 0.121749 -0.034090
					CHANNELS 3 Zrotation Yrotation Xrotation
					JOINT LeftArm
					{
						OFFSET 0.090977 0.030469 -0.008868
						CHANNELS 3 Zrotation Yrotation Xrotation
						JOINT LeftForeArm
						{
							OFFSET 0.259612 -0.012772 -0.027456
							CHANNELS 3 Zrotation Yrotation Xrotation
							JOINT LeftHand
							{
								OFFSET 0.249234 0.008986 -0.001171
								CHANNELS 3 Zrotation Yrotation Xrotation
								End Site
								{
									OFFSET 0.000000 0.000000 0.000000
								}
							}
						}
					}
				}
				JOINT RightShoulder
				{
					OFFSET -0.081759 0.118833 -0.038615
					CHANNELS 3 Zrotation Yrotation Xrotation
					JOINT RightArm
					{
						OFFSET -0.096012 0.032551 -0.009143
						CHANNELS 3 Zrotation Yrotation Xrotation
						JOINT RightForeArm
						{
							OFFSET -0.253742 -0.013329 -0.021401
							CHANNELS 3 Zrotation Yrotation Xrotation
							JOINT RightHand
							{
								OFFSET -0.255298 0.007772 -0.005559
								CHANNELS 3 Zrotation Yrotation Xrotation
								End Site
								{
									OFFSET 0.000000 0.000000 0.000000
								}
							}
						}
					}
				}
			}
		}
	}
}
MOTION
Frames: 10
Frame Time: 0.035714
-0.000202 0.946644 0.012822 -6.770080 15.915255 -9.965587 7.627416 -0.764298 17.255827 -7.237912 -0.522121 -17.419794 -9.473075 -19.935528 0.899335 0.000000 0.000000 0.000000 -3.530019 -1.898304 15.748995 1.642333 -0.687944 -11.682048 -10.009248 -20.253027 32.217226 0.000000 0.000000 0.000000 -2.911266 -0.055396 -1.645515 9.978025 -7.526056 10.069197 -5.903687 -0.491082 19.875178 -5.697375 5.629228 -37.509516 0.000000 0.000000 0.000000 -20.154734 -12.644630 3.045554 -57.226070 -9.238252 -3.343074 5.739438 -32.406516 -0.719315 0.000000 0.000000 0.000000 -0.997863 15.803949 5.524015 55.821630 26.877168 6.571768 -88.640662 61.203962 -47.463674 0.000000 0.000000 0.000000 
-0.003306 0.946322 0.011865 -6.545234 15.307795 -9.473003 7.745843 -0.725137 16.934590 -7.558229 -0.547286 -17.714114 -9.289368 -19.396178 1.010444 0.000000 0.000000 0.000000 -3.590782 -1.801232 15.338338 1.713674 -0.673734 -11.504955 -9.292661 -19.479868 30.117659 0.000000 0.000000 0.000000 -2.762560 -0.043782 -1.795470 10.031497 -7.493311 9.995500 -5.871728 -0.361511 20.014260 -5.749844 5.644598 -37.012391 0.000000 0.000000 0.000000 -20.282055 -12.711826 3.141668 -57.190252 -9.158071 -3.401623 5.621894 -32.277619 -0.657758 0.000000 0.000000 0.000000 -0.898316 16.038596 5.624013 55.628744 26.860192 6.486195 -90.571823 61.880781 -49.726652 0.000000 0.000000 0.000000 
-0.006517 0.946180 0.010801 -6.343017 14.312000 -9.115071 7.788863 -0.632985 16.389296 -7.698696 -0.470161 -17.271706 -8.779284 -18.711824 0.589151 0.000000 0.000000 0.000000 -3.473594 -1.718093 14.991542 1.839881 -0.642440 -11.015547 -8.730647 -18.981503 27.105996 0.000000 0.000000 0.000000 -2.597142 -0.036837 -1.279559 10.039299 -7.481970 10.206350 -5.649021 -0.241940 19.665132 -5.774020 5.605264 -36.695609 0.000000 0.000000 0.000000 -20.315038 -12.675770 3.250597 -57.266168 -9.216281 -3.382093 5.757629 -32.259610 -0.658527 0.000000 0.000000 0.000000 -0.652654 16.105910 5.685797 55.811198 26.744038 6.442327 -91.735238 62.426322 -51.486139 0.000000 0.000000 0.000000 
-0.010242 0.945988 0.009664 -6.159561 14.328573 -8.982504 7.904008 -0.633928 15.969225 -7.862156 -0.457930 -16.946280 -8.757250 -18.731093 0.529764 0.000000 0.000000 0.000000 -3.438621 -1.702345 14.863600 1.926809 -0.644298 -10.973531 -8.766002 -19.076688 26.309693 0.000000 0.000000 0.000000 -2.345305 -0.022489 -1.640165 10.241449 -7.507672 9.789790 -5.642294 -0.258156 20.025881 -6.070330 5.746436 -36.283398 0.000000 0.000000 0.000000 -20.462690 -13.260850 3.570663 -57.082042 -8.913240 -3.536187 6.249901 -31.407805 -0.763845 0.000000 0.000000 0.000000 -0.703539 16.657652 5.871811 55.932149 26.761241 6.461458 -93.004168 62.219556 -52.268632 0.000000 0.000000 0.000000 
-0.014184 0.945944 0.008599 -5.966647 13.709161 -9.052451 7.980233 -0.586040 15.624755 -7.948732 -0.368557 -16.165919 -8.366544 -18.382927 0.034116 0.000000 0.000000 0.000000 -3.416032 -1.666726 14.774407 2.013905 -0.643070 -11.004595 -8.707028 -19.106771 25.894774 0.000000 0.000000 0.000000 -2.227903 -0.018584 -1.544104 10.359203 -7.574442 9.906244 -5.401036 -0.052222 19.993591 -6.147229 5.768481 -36.061462 0.000000 0.000000 0.000000 -20.335593 -13.344632 3.673257 -57.213678 -9.053900 -3.498116 6.598151 -31.023661 -0.832359 0.000000 0.000000 0.000000 -0.550663 16.771852 5.936120 56.355450 26.663384 6.484130 -94.674611 62.181173 -53.651293 0.000000 0.000000 0.000000 
-0.018397 0.945905 0.007559 -5.824309 13.721059 -9.028131 8.132995 -0.598592 15.309986 -8.037331 -0.349260 -15.838566 -8.343465 -18.401845 -0.028682 0.000000 0.000000 0.000000 -3.336430 -1.630261 14.439292 2.166901 -0.645712 -10.906637 -9.176951 -19.773491 26.199229 0.000000 0.000000 0.000000 -2.164873 -0.017129 -1.457566 10.398519 -7.650454 10.102329 -5.084445 0.238098 19.919776 -6.160804 5.806865 -35.989735 0.000000 0.000000 0.000000 -20.149872 -13.122731 3.483159 -57.444368 -8.691501 -3.680742 6.366955 -30.629279 -0.779120 0.000000 0.000000 0.000000 -0.432622 16.777749 5.971095 56.387702 26.937270 6.658153 -93.970938 61.823986 -52.573437 0.000000 0.000000 0.000000 
-0.022921 0.946176 0.006535 -5.715243 13.810883 -9.076266 8.141478 -0.593616 15.083360 -7.764738 -0.311685 -15.576595 -8.352519 -18.472050 -0.071163 0.000000 0.000000 0.000000 -3.205572 -1.594408 14.043993 2.281544 -0.645533 -10.767800 -9.813345 -20.607804 27.081281 0.000000 0.000000 0.000000 -2.046093 -0.014769 -1.312234 10.437031 -7.720893 10.250641 -4.824818 0.531654 19.880440 -5.964794 5.764157 -35.961305 0.000000 0.000000 0.000000 -20.041417 -12.740123 3.188227 -57.434973 -7.968263 -4.017057 5.731227 -30.546376 -0.633135 0.000000 0.000000 0.000000 -0.454752 16.731924 5.959138 55.939768 27.600044 6.939121 -92.939008 61.119283 -50.879775 0.000000 0.000000 0.000000 
-0.027760 0.946606 0.005554 -5.659627 13.874575 -9.067945 8.292858 -0.613315 14.844656 -7.607715 -0.291670 -15.426237 -8.389229 -18.492017 -0.010204 0.000000 0.000000 0.000000 -2.986071 -1.563890 13.641855 2.422988 -0.650046 -10.690272 -10.453242 -21.431696 27.863951 0.000000 0.000000 0.000000 -1.837864 -0.011917 -0.994822 10.400715 -7.677104 10.159020 -4.713432 0.742883 19.918713 -5.750485 5.707175 -35.985065 0.000000 0.000000 0.000000 -20.205656 -12.594680 3.022243 -57.167248 -6.807996 -4.529181 4.968350 -30.492040 -0.448053 0.000000 0.000000 0.000000 -0.494706 16.917679 6.023728 55.230800 28.157814 7.091640 -91.668362 60.105102 -48.773255 0.000000 0.000000 0.000000 
-0.032862 0.947003 0.004748 -5.676964 13.900178 -9.054304 8.416774 -0.622411 14.519307 -7.230522 -0.246104 -15.149817 -8.351046 -18.507542 -0.101212 0.000000 0.000000 0.000000 -2.851935 -1.520337 13.210064 2.554211 -0.656491 -10.671257 -10.656768 -21.592046 29.004054 0.000000 0.000000 0.000000 -1.578918 -0.011453 -0.554905 10.323073 -7.595958 10.045898 -4.563569 0.963035 19.920493 -5.398910 5.590286 -36.167855 0.000000 0.000000 0.000000 -20.313220 -12.368954 2.811817 -57.006509 -5.859415 -4.944214 4.468739 -30.117099 -0.330965 0.000000 0.000000 0.000000 -0.798916 16.937162 5.969189 54.441342 28.659573 7.205867 -90.709119 59.538897 -47.378340 0.000000 0.000000 0.000000 
-0.038178 0.947617 0.004335 -5.632735 13.671598 -9.019877 8.592039 -0.623539 14.199323 -7.019524 -0.195171 -14.766238 -8.210895 -18.346167 -0.247251 0.000000 0.000000 0.000000 -2.665857 -1.467221 12.742826 2.662945 -0.660464 -10.696130 -11.064043 -22.045957 30.254661 0.000000 0.000000 0.000000 -1.262424 -0.007992 -0.298610 10.331755 -7.557014 9.933566 -4.421611 1.122548 19.925847 -5.121577 5.475309 -36.515955 0.000000 0.000000 0.000000 -20.454616 -12.240716 2.717273 -57.211753 -5.175560 -5.286596 4.357857 -29.766920 -0.297460 0.000000 0.000000 0.000000 -1.227606 16.864391 5.847177 53.839612 28.872786 7.200860 -90.113177 58.953493 -46.338860 0.000000 0.000000 0.000000 
